/* XPM */
static char *_8384e8e4ffd41f4d8904b4bb98ff8a7recOchsGBAn68Q3F[] = {
/* columns rows colors chars-per-pixel */
"16 16 3 1 ",
"  c black",
". c white",
"X c None",
/* pixels */
"                ",
"  ...........   ",
"  ...........   ",
"         ....   ",
"         ....   ",
"         ....   ",
"         ....   ",
"  ...........   ",
"  ...........   ",
"  ...........   ",
"  ...           ",
"  ...           ",
"  ...           ",
"  ...........   ",
"  ...........   ",
"  ...........   ",
};
