/* XPM */
static char *cafc160191784bdbbc17f6dc639f68ec8ci1zJHuVE5HNduV[] = {
/* columns rows colors chars-per-pixel */
"16 16 3 1 ",
"  c black",
". c white",
"X c None",
/* pixels */
"                ",
"  ...........   ",
"  ...........   ",
"          ...   ",
"          ...   ",
"          ...   ",
"          ...   ",
"  ...........   ",
"  ...........   ",
"  ...........   ",
"          ...   ",
"          ...   ",
"          ...   ",
"  ...........   ",
"  ...........   ",
"  ...........   ",
};
