/* XPM */
static char *ba55f99252f74a3fc1f6985489b92fc0VWJbJ9nOW91wnBLV[] = {
/* columns rows colors chars-per-pixel */
"16 16 3 1 ",
"  c black",
". c white",
"X c None",
/* pixels */
"                ",
"  ....    ...   ",
"  ....    ...   ",
"  ....    ...   ",
"  ....    ...   ",
"  ....    ...   ",
"  ....    ...   ",
"  ....    ...   ",
"  ....    ...   ",
"  ....    ...   ",
"  ...........   ",
"  ...........   ",
"  ...........   ",
"          ...   ",
"          ...   ",
"          ...   ",
};
