/* XPM */
static char *_2bbf9aadc6248bdafd01ab382f42f1e[] = {
/* columns rows colors chars-per-pixel */
"16 16 3 1 ",
"  c black",
". c white",
"X c None",
/* pixels */
"                ",
"  ...........   ",
"  ...........   ",
"  ....    ...   ",
"  ....    ...   ",
"  ....    ...   ",
"          ...   ",
"          ...   ",
"          ...   ",
"          ...   ",
"          ...   ",
"          ...   ",
"          ...   ",
"          ...   ",
"          ...   ",
"          ...   ",
};
