/* XPM */
static char *c9714e98a7404daac1aaef7e7a48116b3uVmYDp2qcgXif1D[] = {
/* columns rows colors chars-per-pixel */
"16 16 6 1 ",
"  c black",
". c black",
"X c #FFEB3B",
"o c black",
"+ c #F44336",
"@ c None",
/* pixels */
"    .......     ",
"    .......     ",
"   .XXXXXXX..   ",
" ..XXXXXXXXXX.  ",
" ..XXXXXXXXXX.  ",
".XXXX++++++XXX..",
".XXX+XXXXXXXXX..",
".XXX+XXXXXXXXX..",
".XXX+XXXXXXXXX..",
".XXX+XXXXXXXXX..",
".XXX+XXXXXXXXX..",
".XXXX++++++XXX..",
" ..XXXXXXXXXX.  ",
" ..XXXXXXXXXX.  ",
"   .XXXXXXX..   ",
"    .......     ",
};
