/* XPM */
static char *f6cce96ce78e424e85a11ae1a148b4b3hbQ5h3CpK25KLmSH[] = {
/* columns rows colors chars-per-pixel */
"16 16 16 1 ",
"  c None",
". c black",
"X c #000409",
"o c #2E222F",
"O c #5B2229",
"+ c #1B4A2F",
"@ c #7A3045",
"# c #9E4539",
"$ c #CD683D",
"% c #3D9243",
"& c #59B352",
"* c #E6904E",
"= c #FBB954",
"- c #8AD364",
"; c #91DB69",
": c #FFF2C4",
/* pixels */
"      XXX       ",
"      X-%X      ",
"      XX;X      ",
"   XXX*&XXXXX   ",
"  X*:=O+%O:*#X  ",
" X*:*#=OO$O=*OX ",
"X#=*$=****=#$#OX",
"X**$.$*==*$.$$OX",
"X*$$.o=..=o.$#OX",
"X*$#O.=..=.O#O#X",
"X$$O**....$$OOOX",
"X#$OO$$$$$$O.OOX",
"XO##..@...@.@OOX",
" XO#@...@..@@OX ",
"  XXOO###OOOXX  ",
"    XXXXXXXX    "
};
