/* XPM */
static char *cafc320191784bdbbc17f6dc639f68ec8ci1zJHuVE5HNduV[] = {
/* columns rows colors chars-per-pixel */
"32 32 3 1 ",
"  c black",
". c white",
"X c None",
/* pixels */
"                                ",
"    .......................     ",
"    .......................     ",
"    .......................     ",
"    .......................     ",
"                    .......     ",
"                    .......     ",
"                    .......     ",
"                    .......     ",
"                    .......     ",
"                    .......     ",
"                    .......     ",
"                    .......     ",
"    .......................     ",
"    .......................     ",
"    .......................     ",
"    .......................     ",
"    .......................     ",
"    .......................     ",
"                    .......     ",
"                    .......     ",
"                    .......     ",
"                    .......     ",
"                    .......     ",
"                    .......     ",
"                    .......     ",
"    .......................     ",
"    .......................     ",
"    .......................     ",
"    .......................     ",
"    .......................     ",
"                                ",
};
