/* XPM */
static char *eee9945aa90324a6fb950763b010c8b8YiWxGC61ZihNiBT1[] = {
/* columns rows colors chars-per-pixel */
"32 32 5 1 ",
"  c black",
". c white",
"X c #FEFEFE",
"o c None",
"O c gray98",
/* pixels */
"                                ",
"     ......................     ",
"     ......................     ",
"     ......................     ",
"     ......................     ",
"     .......        .......     ",
"     .......        .......     ",
"     .......        .......     ",
"     .......        .......     ",
"     .......        .......     ",
"     .......        .......     ",
"     .......        .......     ",
"     .......        .......     ",
"     ......................     ",
"     ......................     ",
"     ......................     ",
"     ......................     ",
"     ......................     ",
"     ......................     ",
"     .......        .......     ",
"     .......        .......     ",
"     .......        .......     ",
"     .......        .......     ",
"     .......        .......     ",
"     .......        .......     ",
"     .......        .......     ",
"     .......        .......     ",
"     ......................     ",
"     ......................     ",
"     ......................     ",
"     ......................     ",
"                                ",
};
