/* XPM */
static char *_f32d00c04a741df8ef77be2c510a866[] = {
/* columns rows colors chars-per-pixel */
"32 32 5 1 ",
"  c black",
". c white",
"X c #F4F4F4",
"o c None",
"O c #FEFEFE",
/* pixels */
"                                ",
"    .......................     ",
"    .......................     ",
"    .......................     ",
"    .......................     ",
"    .......        ........     ",
"    .......        ........     ",
"    .......        ........     ",
"    .......        ........     ",
"    .......        ........     ",
"    .......        ........     ",
"    .......        ........     ",
"    .......        ........     ",
"    .......................     ",
"    .......................     ",
"    .......................     ",
"    .......................     ",
"    .......................     ",
"    .......................     ",
"                   ........     ",
"                   ........     ",
"                   ........     ",
"                   ........     ",
"                   ........     ",
"                   ........     ",
"                   ........     ",
"    .......................     ",
"    .......................     ",
"    .......................     ",
"    .......................     ",
"    .......................     ",
"                                ",
};
