/* XPM */
static char *c9714e98a7404daac1aaef7e7a48132b3uVmYDp2qcgXif1D[] = {
/* columns rows colors chars-per-pixel */
"32 32 7 1 ",
"  c black",
". c black",
"X c #FFEB3B",
"o c black",
"O c #80761E",
"+ c #F44336",
"@ c None",
/* pixels */
"         ..............         ",
"         ..............         ",
"         ..............         ",
"      ...XXXXXXXXXXXXXX...      ",
"      ...XXXXXXXXXXXXXX...      ",
"      ...XXXXXXXXXXXXXX...      ",
"   ...XXXXXXXXXXXXXXXXXXXX...   ",
"   ...XXXXXXXXXXXXXXXXXXXX...   ",
"   ...XXXXXXXXXXXXXXXXXXXX...   ",
"...XXXXXXXX++++++++++++XXXXXX...",
"...XXXXXXXX++++++++++++XXXXXX...",
"...XXXXXXXX++++++++++++XXXXXX...",
"...XXXXXX++XXXXXXXXXXXXXXXXXX...",
"...XXXXXX++XXXXXXXXXXXXXXXXXX...",
"...XXXXXX++XXXXXXXXXXXXXXXXXX...",
"...XXXXXX++XXXXXXXXXXXXXXXXXX...",
"...XXXXXX++XXXXXXXXXXXXXXXXXX...",
"...XXXXXX++XXXXXXXXXXXXXXXXXX...",
"...XXXXXX++XXXXXXXXXXXXXXXXXX...",
"...XXXXXX++XXXXXXXXXXXXXXXXXX...",
"...XXXXXX++XXXXXXXXXXXXXXXXXX...",
"...XXXXXXXX++++++++++++XXXXXX...",
"...XXXXXXXX++++++++++++XXXXXX...",
"   ...XXXXXXXXXXXXXXXXXXXX...   ",
"   ...XXXXXXXXXXXXXXXXXXXX...   ",
"   ...XXXXXXXXXXXXXXXXXXXX...   ",
"   oooOOOXXXXXXXXXXXXXXOOOooo   ",
"      ...XXXXXXXXXXXXXX...      ",
"      ...XXXXXXXXXXXXXX...      ",
"         ..............         ",
"         ..............         ",
"         ..............         ",
};
