/* XPM */
static char *da9ae3bc529044ccb69d2fa68f2aa90fgdFvqifWtORh9kXn[] = {
/* columns rows colors chars-per-pixel */
"32 32 7 1 ",
"  c None",
". c black",
"X c #696A6A",
"o c #DF0000",
"O c #CBC200",
"+ c #FFF300",
"@ c white",
/* pixels */
"                                ",
"                                ",
"                                ",
"                                ",
"          OO      ..OO          ",
"          OO      ..OO          ",
"          ............          ",
"          ............          ",
"        ..@@@@@@@@@@@@..        ",
"        ..@@@@@@@@@@@@..        ",
"        ..@@@@@@@@@@@@..        ",
"        ..@@@@@@@@@@@@..        ",
"    XXXX..@@@@@@@@@@@@..XXXX    ",
"    XXXX..@@@@@@@@@@@@..XXXX    ",
"      XX..@@@@++++@@@@..XX      ",
"      XX..@@@@++++@@@@..XX      ",
"        ..@@@@@@@@@@@@..        ",
"        ..@@.@.@@.@.@@..        ",
"        ..@@@.@@@@.@@@..        ",
"        ..@@.@.@@.@.@@..        ",
"        ..@@@@@@@@@@@@..        ",
"        ..@@@@@@@@@@@@..        ",
"          ....oooooo..          ",
"          ....oooooo..          ",
"                oo              ",
"                oo              ",
"                oo              ",
"                oo              ",
"                                ",
"                                ",
"                                ",
"                                ",
};
