/* XPM */
static char *_f1ae18e4c1a428084fe10dac1ea9506QPpWFrTe4RAPjLqh[] = {
/* columns rows colors chars-per-pixel */
"32 32 172 2 ",
"   c None",
".  c #092A2D",
"X  c #112C2E",
"o  c #192D2F",
"O  c #0B2E32",
"+  c #1F2F30",
"@  c #10373C",
"#  c #11393F",
"$  c #0E3337",
"%  c #2F3C3E",
"&  c #243939",
"*  c #343433",
"=  c #383734",
"-  c #363837",
";  c #3C3A35",
":  c #323738",
">  c #333A3A",
",  c #413D33",
"<  c #423F38",
"1  c #5A4D2F",
"2  c #574C2F",
"3  c #464031",
"4  c #4C4431",
"5  c #454139",
"6  c #4A453A",
"7  c #4E483C",
"8  c #544930",
"9  c #534C3D",
"0  c #58503F",
"q  c #66562D",
"w  c #6C5A2D",
"e  c #705D2C",
"r  c #7C652B",
"t  c #76612C",
"y  c #143D44",
"u  c #1C3D42",
"i  c #2C3E43",
"p  c #303E41",
"a  c #154047",
"s  c #17434A",
"d  c #19464E",
"f  c #1D4B55",
"g  c #1E4E59",
"h  c #1A4750",
"j  c #2A4146",
"k  c #27464D",
"l  c #29434A",
"z  c #26484F",
"x  c #3A504E",
"c  c #244A53",
"v  c #214F59",
"b  c #20505B",
"n  c #5E5541",
"m  c #605642",
"M  c #655A43",
"N  c #6A5E45",
"B  c #6E6146",
"V  c #706347",
"C  c #746648",
"Z  c #7A6A4A",
"A  c #776849",
"S  c #7F724F",
"D  c #757754",
"F  c #83692A",
"G  c #8B6F2A",
"H  c #8D7029",
"J  c #937429",
"K  c #997928",
"L  c #9D7B27",
"P  c #A17E27",
"I  c #806F4C",
"U  c #85724E",
"Y  c #8B774F",
"T  c #8E7A51",
"R  c #937D52",
"E  c #A58027",
"W  c #AB8526",
"Q  c #B28A25",
"!  c #BD9124",
"~  c #E7AD1F",
"^  c #E9AF1F",
"/  c #EDB21F",
"(  c #F2B51E",
")  c #F7B91E",
"_  c #FCBC1D",
"`  c #C49623",
"'  c #CD9C22",
"]  c #C79823",
"[  c #D19E22",
"{  c #D4A121",
"}  c #DBA521",
"|  c #DFA820",
" . c #E4AB20",
".. c #FCBE22",
"X. c #FCBF29",
"o. c #FCC12D",
"O. c #FCC53A",
"+. c #978053",
"@. c #9A8354",
"#. c #A38A57",
"$. c #A68D58",
"%. c #A98F59",
"&. c #AD925B",
"*. c #B6985D",
"=. c #BA9C5E",
"-. c #B3965C",
";. c #BE9E60",
":. c #B8A368",
">. c #C5A462",
",. c #CDAA65",
"<. c #D2AE66",
"1. c #D4B067",
"2. c #D7B268",
"3. c #DAB569",
"4. c #DFB96B",
"5. c #E4BC6C",
"6. c #FDCA4C",
"7. c #FDC742",
"8. c #FDCC53",
"9. c #FDCE5B",
"0. c #FDD05F",
"q. c #EAC16E",
"w. c #FDD164",
"e. c #FDD46F",
"r. c #EAC372",
"t. c #ECC67B",
"y. c #ECC87F",
"u. c #FDD674",
"i. c #FDD97E",
"p. c #EDCA84",
"a. c #EECE8C",
"s. c #FDDB85",
"d. c #FEDE8E",
"f. c #EFCF90",
"g. c #EFD092",
"h. c #F0D295",
"j. c #FEDF93",
"k. c #F0D49A",
"l. c #FEE097",
"z. c #FEE199",
"x. c #F1D7A2",
"c. c #F2D9A5",
"v. c #F3DBAA",
"b. c #F4DDB2",
"n. c #FEE7AD",
"m. c #FEE5A6",
"M. c #F4E0B6",
"N. c #FEE9B5",
"B. c #F5E3BC",
"V. c #FEEBBC",
"C. c #F7E6C4",
"Z. c #FEEEC5",
"A. c #F7E8CA",
"S. c #F8EBCF",
"D. c #FEEFCA",
"F. c #F7E7C8",
"G. c #FEF0CC",
"H. c #F8ECD3",
"J. c #F9EED8",
"K. c #FEF2D3",
"L. c #FCF2DC",
"P. c #FCF4E3",
"I. c #FCF6E9",
"U. c #FCF6EB",
"Y. c #FEF9EC",
"T. c #FEFBF5",
"R. c #FEFAF3",
"E. c #FEFDFA",
"W. c white",
"Q. c #FFFFFE",
"!. c #FFFEFD",
"~. c #FFFFFE",
/* pixels */
"                                                                ",
"                                                                ",
"                                                                ",
"                                                                ",
"                                                                ",
"                          ............                          ",
"                     .....................                      ",
"                  ...........................                   ",
"               ............          ...........                ",
"             ..........                  ........               ",
"  ..  ...............                      ........             ",
"       ..............                        .......            ",
"             .............                    ......            ",
"                   .............              .......           ",
"             ..          .............         ......           ",
"             ..                .............   .......          ",
"             ..                     ...................         ",
"             ..                            .............        ",
"             ...                                 ........       ",
"              ...                                     .....     ",
"               ...                            ..             .  ",
"                ...                        . ..                 ",
"                  .                       ...                   ",
"                    ...               ......                    ",
"                        ................                        ",
"                               .                                ",
"                                                                ",
"                                                                ",
"                                                                ",
"                                                                ",
"                                                                ",
"                                                                ",
};
