/* XPM */
static char *_8a421932ef04158ecad2cd295206582bJxHpTEYaTbqVn5U[] = {
/* columns rows colors chars-per-pixel */
"32 32 7 1 ",
"  c None",
". c #DF0000",
"X c black",
"o c white",
"O c #FFF300",
"+ c #868686",
"@ c #CBC200",
/* pixels */
"                                ",
"                                ",
"                                ",
"                  ..            ",
"                  ..            ",
"                  .....         ",
"                  .....         ",
"                  .....         ",
"           XXXX........         ",
"           XXXX........         ",
"        XXXooooooooooooXX       ",
"        XXXooooooooooooXX       ",
"        XXXooooooooooooXX       ",
"        XXXoooooooXXoooXX       ",
"        XXXoooooooXXoooXX       ",
"        XXXooooooooooooOOXXX    ",
"        XXXooooooooooooOOXXX    ",
"        XXXoooo+++++oooXX       ",
"        XXXoooo+++++oooXX       ",
"        XXXoooo+++++oooXX       ",
"   XXXXXXXXoo++oooooooo..       ",
"   XXXXXXXXoo++oooooooo..       ",
"   XXXooooooooo+++++oooXX       ",
"   XXXooooooooo+++++oooXX       ",
"   XXXooooooooo+++++oooXX       ",
"      XXoooooooooooooooXX       ",
"      XXoooooooooooooooXX       ",
"        XXXXXXXXXXXXXXXXX       ",
"        XXXXXXXXXXXXXXXXX       ",
"        XXXXXXXXXXXXXXXXX       ",
"           @@       @@@         ",
"           @@       @@@         ",
};
