/* XPM */
static char *_45cfcbfead54d07d28d655e4a6d8918Ik32Dk7U5kAcSYNe[] = {
/* columns rows colors chars-per-pixel */
"32 32 7 1 ",
"  c None",
". c #DF0000",
"X c black",
"o c white",
"O c #FFF300",
"+ c #868686",
"@ c #CBC200",
/* pixels */
"                  ..            ",
"                  ..            ",
"                  ..            ",
"                  .....         ",
"                  .....         ",
"           XXXX........         ",
"           XXXX........         ",
"           XXXX........         ",
"        XXXooooooooooooXX       ",
"        XXXooooooooooooXX       ",
"        XXXoooooooXXoooXX       ",
"        XXXoooooooXXoooXX       ",
"        XXXoooooooXXoooXX       ",
"        XXXooooooooooooOOXXX    ",
"        XXXooooooooooooOOXXX    ",
"        XXXoooo+++++oooXX       ",
"        XXXoooo+++++oooXX       ",
"   XXXXXXXXoo++oooooooo..       ",
"   XXXXXXXXoo++oooooooo..       ",
"   XXXXXXXXoo++oooooooo..       ",
"   XXXooooooooo+++++oooXX       ",
"   XXXooooooooo+++++oooXX       ",
"      XXoooooooooooooooXX       ",
"      XXoooooooooooooooXX       ",
"      XXoooooooooooooooXX       ",
"        XXXXXXXXXXXXXXXXX       ",
"        XXXXXXXXXXXXXXXXX       ",
"           @@       @@@         ",
"           @@       @@@         ",
"           @@       @@@         ",
"           @@       @@@         ",
"           @@       @@@         ",
};
