/* XPM */
static char *_8a421932ef04158ecad2cd295206582bJxHpTEYaTbqVn5U[] = {
/* columns rows colors chars-per-pixel */
"32 32 7 1 ",
"  c None",
". c #DF0000",
"X c black",
"o c white",
"O c #FFF300",
"+ c #868686",
"@ c #CBC200",
/* pixels */
"                                ",
"                                ",
"                                ",
"           ...                  ",
"           ...                  ",
"         .....                  ",
"         .....                  ",
"         .....                  ",
"         .......XXXXX           ",
"         .......XXXXX           ",
"      XXXooooooooooooXX         ",
"      XXXooooooooooooXX         ",
"      XXXooooooooooooXX         ",
"      XXXooXXXoooooooXX         ",
"      XXXooXXXoooooooXX         ",
"    XXOOOooooooooooooXX         ",
"    XXOOOooooooooooooXX         ",
"      XXXoo+++++oooooXX         ",
"      XXXoo+++++oooooXX         ",
"      XXXoo+++++oooooXX         ",
"      ...ooooooo++oooXXXXXXX    ",
"      ...ooooooo++oooXXXXXXX    ",
"      XXXoo+++++ooooooooooXX    ",
"      XXXoo+++++ooooooooooXX    ",
"      XXXoo+++++ooooooooooXX    ",
"      XXXooooooooooooooXXX      ",
"      XXXooooooooooooooXXX      ",
"      XXXXXXXXXXXXXXXXX         ",
"      XXXXXXXXXXXXXXXXX         ",
"      XXXXXXXXXXXXXXXXX         ",
"         @@       @@@           ",
"         @@       @@@           ",
};
