/* XPM */
static char *f6cce96ce78e424e85a11ae1a148b4b3hbQ5h3CpK25KLmSH[] = {
/* columns rows colors chars-per-pixel */
"32 32 16 1 ",
"  c None",
". c black",
"X c #000409",
"o c #2E222F",
"O c #5B2229",
"+ c #1B4A2F",
"@ c #7A3045",
"# c #9E4539",
"$ c #CD683D",
"% c #3D9243",
"& c #59B352",
"* c #E6904E",
"= c #FBB954",
"- c #8AD364",
"; c #91DB69",
": c #FFF2C4",
/* pixels */
"            XXXXXX              ",
"            XXXXXX              ",
"            XX--%%XX            ",
"            XX--%%XX            ",
"            XXXX;;XX            ",
"            XXXX;;XX            ",
"      XXXXXX**&&XXXXXXXXXX      ",
"      XXXXXX**&&XXXXXXXXXX      ",
"    XX**::==OO++%%OO::**##XX    ",
"    XX**::==OO++%%OO::**##XX    ",
"  XX**::**##==OOOO$$OO==**OOXX  ",
"  XX**::**##==OOOO$$OO==**OOXX  ",
"XX##==**$$==********==##$$##OOXX",
"XX##==**$$==********==##$$##OOXX",
"XX****$$..$$**====**$$..$$$$OOXX",
"XX****$$..$$**====**$$..$$$$OOXX",
"XX**$$$$..oo==....==oo..$$##OOXX",
"XX**$$$$..oo==....==oo..$$##OOXX",
"XX**$$##OO..==....==..OO##OO##XX",
"XX**$$##OO..==....==..OO##OO##XX",
"XX$$$$OO****........$$$$OOOOOOXX",
"XX$$$$OO****........$$$$OOOOOOXX",
"XX##$$OOOO$$$$$$$$$$$$OO..OOOOXX",
"XX##$$OOOO$$$$$$$$$$$$OO..OOOOXX",
"XXOO####....@@......@@..@@OOOOXX",
"XXOO####....@@......@@..@@OOOOXX",
"  XXOO##@@......@@....@@@@OOXX  ",
"  XXOO##@@......@@....@@@@OOXX  ",
"    XXXXOOOO######OOOOOOXXXX    ",
"    XXXXOOOO######OOOOOOXXXX    ",
"        XXXXXXXXXXXXXXXX        ",
"        XXXXXXXXXXXXXXXX        ",
};
