/* XPM */
static char *_9a32acdfc624637a4219dc986daa041SnanV4UEFrj2WP9r[] = {
/* columns rows colors chars-per-pixel */
"64 64 3 1 ",
"  c black",
". c white",
"X c None",
/* pixels */
"                                                                ",
"                                                                ",
"         .............................................          ",
"         .............................................          ",
"         .............................................          ",
"         .............................................          ",
"         .............................................          ",
"         .............................................          ",
"         .............................................          ",
"         .............................................          ",
"         ...............                ..............          ",
"         ...............                ..............          ",
"         ...............                ..............          ",
"         ...............                ..............          ",
"         ...............                ..............          ",
"         ...............                ..............          ",
"         ...............                ..............          ",
"         ...............                ..............          ",
"         ...............                ..............          ",
"         ...............                ..............          ",
"         ...............                ..............          ",
"         ...............                ..............          ",
"         ...............                ..............          ",
"         ...............                ..............          ",
"         ...............                ..............          ",
"         ...............                ..............          ",
"         ...............                ..............          ",
"         ...............                ..............          ",
"         ...............                ..............          ",
"         ...............                ..............          ",
"         ...............                ..............          ",
"         ...............                ..............          ",
"         ...............                ..............          ",
"         ...............                ..............          ",
"         ...............                ..............          ",
"         ...............                ..............          ",
"         ...............                ..............          ",
"         ...............                ..............          ",
"         ...............                ..............          ",
"         ...............                ..............          ",
"         ...............                ..............          ",
"         ...............                ..............          ",
"         ...............                ..............          ",
"         ...............                ..............          ",
"         ...............                ..............          ",
"         ...............                ..............          ",
"         ...............                ..............          ",
"         ...............                ..............          ",
"         ...............                ..............          ",
"         ...............                ..............          ",
"         ...............                ..............          ",
"         ...............                ..............          ",
"         .............................................          ",
"         .............................................          ",
"         .............................................          ",
"         .............................................          ",
"         .............................................          ",
"         .............................................          ",
"         .............................................          ",
"         .............................................          ",
"         .............................................          ",
"         .............................................          ",
"                                                                ",
"                                                                "
};
