/* XPM */
static char *cafc320191784bdbbc17f6dc639f68ec8ci1zJHuVE5HNduV[] = {
/* columns rows colors chars-per-pixel */
"64 64 3 1 ",
"  c black",
". c white",
"X c None",
/* pixels */
"                                                                ",
"                                                                ",
"         .............................................          ",
"         .............................................          ",
"         .............................................          ",
"         .............................................          ",
"         .............................................          ",
"         .............................................          ",
"         .............................................          ",
"         .............................................          ",
"                                        ..............          ",
"                                        ..............          ",
"                                        ..............          ",
"                                        ..............          ",
"                                        ..............          ",
"                                        ..............          ",
"                                        ..............          ",
"                                        ..............          ",
"                                        ..............          ",
"                                        ..............          ",
"                                        ..............          ",
"                                        ..............          ",
"                                        ..............          ",
"                                        ..............          ",
"                                        ..............          ",
"         .............................................          ",
"         .............................................          ",
"         .............................................          ",
"         .............................................          ",
"         .............................................          ",
"         .............................................          ",
"         .............................................          ",
"         .............................................          ",
"         .............................................          ",
"         .............................................          ",
"         .............................................          ",
"         .............................................          ",
"                                        ..............          ",
"                                        ..............          ",
"                                        ..............          ",
"                                        ..............          ",
"                                        ..............          ",
"                                        ..............          ",
"                                        ..............          ",
"                                        ..............          ",
"                                        ..............          ",
"                                        ..............          ",
"                                        ..............          ",
"                                        ..............          ",
"                                        ..............          ",
"                                        ..............          ",
"                                        ..............          ",
"         .............................................          ",
"         .............................................          ",
"         .............................................          ",
"         .............................................          ",
"         .............................................          ",
"         .............................................          ",
"         .............................................          ",
"         .............................................          ",
"         .............................................          ",
"         .............................................          ",
"                                                                ",
"                                                                "
};
