/* XPM */
static char *e09339b113ac4459d735c91cb6f71be5fjkkjI3PjkdPiiUF[] = {
/* columns rows colors chars-per-pixel */
"64 64 5 1 ",
"  c black",
". c white",
"X c None",
"o c #FEFEFE",
"O c white",
/* pixels */
"                                                                ",
"                                                                ",
"         .............................................          ",
"         .............................................          ",
"         .............................................          ",
"         .............................................          ",
"         .............................................          ",
"         .............................................          ",
"         .............................................          ",
"         .............................................          ",
"         ..............                                         ",
"         ..............                                         ",
"         ..............                                         ",
"         ..............                                         ",
"         ..............                                         ",
"         ..............                                         ",
"         ..............                                         ",
"         ..............                                         ",
"         ..............                                         ",
"         ..............                                         ",
"         ..............                                         ",
"         ..............                                         ",
"         ..............                                         ",
"         ..............                                         ",
"         ..............                                         ",
"         .............................................          ",
"         .............................................          ",
"         .............................................          ",
"         .............................................          ",
"         .............................................          ",
"         .............................................          ",
"         .............................................          ",
"         .............................................          ",
"         .............................................          ",
"         .............................................          ",
"         .............................................          ",
"         .............................................          ",
"                                       ...............          ",
"                                       ...............          ",
"                                       ...............          ",
"                                       ...............          ",
"                                       ...............          ",
"                                       ...............          ",
"                                       ...............          ",
"                                       ...............          ",
"                                       ...............          ",
"                                       ...............          ",
"                                       ...............          ",
"                                       ...............          ",
"                                       ...............          ",
"                                       ...............          ",
"                                       ...............          ",
"         .............................................          ",
"         .............................................          ",
"         .............................................          ",
"         .............................................          ",
"         .............................................          ",
"         .............................................          ",
"         .............................................          ",
"         .............................................          ",
"         .............................................          ",
"         .............................................          ",
"                                                                ",
"                                                                "
};
