/* XPM */
static char *_11dd4f14e5c4920fd59fe56589559f85TH4tGbDQczhwdQ9[] = {
/* columns rows colors chars-per-pixel */
"64 64 5 1 ",
"  c black",
". c white",
"X c None",
"o c #FCFCFB",
"O c #FEFEFE",
/* pixels */
"                                                                ",
"                                                                ",
"         .............................................          ",
"         .............................................          ",
"         .............................................          ",
"         .............................................          ",
"         .............................................          ",
"         .............................................          ",
"         .............................................          ",
"         .............................................          ",
"         ..............                                         ",
"         ..............                                         ",
"         ..............                                         ",
"         ..............                                         ",
"         ..............                                         ",
"         ..............                                         ",
"         ..............                                         ",
"         ..............                                         ",
"         ..............                                         ",
"         ..............                                         ",
"         ..............                                         ",
"         ..............                                         ",
"         ..............                                         ",
"         ..............                                         ",
"         ..............                                         ",
"         .............................................          ",
"         .............................................          ",
"         .............................................          ",
"         .............................................          ",
"         .............................................          ",
"         .............................................          ",
"         .............................................          ",
"         .............................................          ",
"         .............................................          ",
"         .............................................          ",
"         .............................................          ",
"         .............................................          ",
"         ..............                ...............          ",
"         ..............                ...............          ",
"         ..............                ...............          ",
"         ..............                ...............          ",
"         ..............                ...............          ",
"         ..............                ...............          ",
"         ..............                ...............          ",
"         ..............                ...............          ",
"         ..............                ...............          ",
"         ..............                ...............          ",
"         ..............                ...............          ",
"         ..............                ...............          ",
"         ..............                ...............          ",
"         .............................................          ",
"         .............................................          ",
"         .............................................          ",
"         .............................................          ",
"         .............................................          ",
"         .............................................          ",
"         .............................................          ",
"         .............................................          ",
"         .............................................          ",
"         .............................................          ",
"         .............................................          ",
"         .............................................          ",
"                                                                ",
"                                                                "
};
