/* XPM */
static char *c9714e98a7404daac1aaef7e7a48164b3uVmYDp2qcgXif1D[] = {
/* columns rows colors chars-per-pixel */
"64 64 7 1 ",
"  c black",
". c black",
"X c #FFEB3B",
"o c black",
"O c #80761E",
"+ c #F44336",
"@ c None",
/* pixels */
"                  ............................                  ",
"                  ............................                  ",
"                  ............................                  ",
"                  ............................                  ",
"                  ............................                  ",
"                  ............................                  ",
"            ......XXXXXXXXXXXXXXXXXXXXXXXXXXXX......o           ",
"            ......XXXXXXXXXXXXXXXXXXXXXXXXXXXX......o           ",
"            ......XXXXXXXXXXXXXXXXXXXXXXXXXXXX......o           ",
"            ......XXXXXXXXXXXXXXXXXXXXXXXXXXXX......o           ",
"            ......XXXXXXXXXXXXXXXXXXXXXXXXXXXX......o           ",
"            ......XXXXXXXXXXXXXXXXXXXXXXXXXXXX......o           ",
"      ......XXXXXXXXXXXXXXXXXXXXXXXXXXXXXXXXXXXXXXXXO.....      ",
"      ......XXXXXXXXXXXXXXXXXXXXXXXXXXXXXXXXXXXXXXXXO.....      ",
"      ......XXXXXXXXXXXXXXXXXXXXXXXXXXXXXXXXXXXXXXXXO.....      ",
"      ......XXXXXXXXXXXXXXXXXXXXXXXXXXXXXXXXXXXXXXXXO.....      ",
"      ......XXXXXXXXXXXXXXXXXXXXXXXXXXXXXXXXXXXXXXXXO.....      ",
"      ......XXXXXXXXXXXXXXXXXXXXXXXXXXXXXXXXXXXXXXXXO.....      ",
"......XXXXXXXXXXXXXXXXX+++++++++++++++++++++++XXXXXXXXXXXX......",
"......XXXXXXXXXXXXXXXXX+++++++++++++++++++++++XXXXXXXXXXXX......",
"......XXXXXXXXXXXXXXXXX+++++++++++++++++++++++XXXXXXXXXXXX......",
"......XXXXXXXXXXXXXXXXX+++++++++++++++++++++++XXXXXXXXXXXX......",
"......XXXXXXXXXXXXXXXXX+++++++++++++++++++++++XXXXXXXXXXXX......",
"......XXXXXXXXXXXX+++++XXXXXXXXXXXXXXXXXXXXXXXXXXXXXXXXXXX......",
"......XXXXXXXXXXXX+++++XXXXXXXXXXXXXXXXXXXXXXXXXXXXXXXXXXX......",
"......XXXXXXXXXXXX+++++XXXXXXXXXXXXXXXXXXXXXXXXXXXXXXXXXXX......",
"......XXXXXXXXXXXX+++++XXXXXXXXXXXXXXXXXXXXXXXXXXXXXXXXXXX......",
"......XXXXXXXXXXXX+++++XXXXXXXXXXXXXXXXXXXXXXXXXXXXXXXXXXX......",
"......XXXXXXXXXXXX+++++XXXXXXXXXXXXXXXXXXXXXXXXXXXXXXXXXXX......",
"......XXXXXXXXXXXX+++++XXXXXXXXXXXXXXXXXXXXXXXXXXXXXXXXXXX......",
"......XXXXXXXXXXXX+++++XXXXXXXXXXXXXXXXXXXXXXXXXXXXXXXXXXX......",
"......XXXXXXXXXXXX+++++XXXXXXXXXXXXXXXXXXXXXXXXXXXXXXXXXXX......",
"......XXXXXXXXXXXX+++++XXXXXXXXXXXXXXXXXXXXXXXXXXXXXXXXXXX......",
"......XXXXXXXXXXXX+++++XXXXXXXXXXXXXXXXXXXXXXXXXXXXXXXXXXX......",
"......XXXXXXXXXXXX+++++XXXXXXXXXXXXXXXXXXXXXXXXXXXXXXXXXXX......",
"......XXXXXXXXXXXX+++++XXXXXXXXXXXXXXXXXXXXXXXXXXXXXXXXXXX......",
"......XXXXXXXXXXXX+++++XXXXXXXXXXXXXXXXXXXXXXXXXXXXXXXXXXX......",
"......XXXXXXXXXXXX+++++XXXXXXXXXXXXXXXXXXXXXXXXXXXXXXXXXXX......",
"......XXXXXXXXXXXX+++++XXXXXXXXXXXXXXXXXXXXXXXXXXXXXXXXXXX......",
"......XXXXXXXXXXXX+++++XXXXXXXXXXXXXXXXXXXXXXXXXXXXXXXXXXX......",
"......XXXXXXXXXXXX+++++XXXXXXXXXXXXXXXXXXXXXXXXXXXXXXXXXXX......",
"......XXXXXXXXXXXXXXXXX+++++++++++++++++++++++XXXXXXXXXXXX......",
"......XXXXXXXXXXXXXXXXX+++++++++++++++++++++++XXXXXXXXXXXX......",
"......XXXXXXXXXXXXXXXXX+++++++++++++++++++++++XXXXXXXXXXXX......",
"......XXXXXXXXXXXXXXXXX+++++++++++++++++++++++XXXXXXXXXXXX......",
"......XXXXXXXXXXXXXXXXX+++++++++++++++++++++++XXXXXXXXXXXX......",
"      ......XXXXXXXXXXXXXXXXXXXXXXXXXXXXXXXXXXXXXXXXO.....      ",
"      ......XXXXXXXXXXXXXXXXXXXXXXXXXXXXXXXXXXXXXXXXO.....      ",
"      ......XXXXXXXXXXXXXXXXXXXXXXXXXXXXXXXXXXXXXXXXO.....      ",
"      ......XXXXXXXXXXXXXXXXXXXXXXXXXXXXXXXXXXXXXXXXO.....      ",
"      ......XXXXXXXXXXXXXXXXXXXXXXXXXXXXXXXXXXXXXXXXO.....      ",
"      ......XXXXXXXXXXXXXXXXXXXXXXXXXXXXXXXXXXXXXXXXO.....      ",
"      ooooooOOOOOOXXXXXXXXXXXXXXXXXXXXXXXXXXXXOOOOOO@ooooo      ",
"            ......XXXXXXXXXXXXXXXXXXXXXXXXXXXX......o           ",
"            ......XXXXXXXXXXXXXXXXXXXXXXXXXXXX......o           ",
"            ......XXXXXXXXXXXXXXXXXXXXXXXXXXXX......o           ",
"            ......XXXXXXXXXXXXXXXXXXXXXXXXXXXX......o           ",
"            ......XXXXXXXXXXXXXXXXXXXXXXXXXXXX......o           ",
"                  ............................                  ",
"                  ............................                  ",
"                  ............................                  ",
"                  ............................                  ",
"                  ............................                  ",
"                  ............................                  "
};
