/* XPM */
static char *da9ae3bc529044ccb69d2fa68f2aa90fgdFvqifWtORh9kXn[] = {
/* columns rows colors chars-per-pixel */
"64 64 7 1 ",
"  c None",
". c black",
"X c #696A6A",
"o c #DF0000",
"O c #CBC200",
"+ c #FFF300",
"@ c white",
/* pixels */
"                                                                ",
"                                                                ",
"                                                                ",
"                                                                ",
"                                                                ",
"                                                                ",
"                                                                ",
"                                                                ",
"                    OOOO            ....OOOO                    ",
"                    OOOO            ....OOOO                    ",
"                    OOOO            ....OOOO                    ",
"                    OOOO            ....OOOO                    ",
"                    ........................                    ",
"                    ........................                    ",
"                    ........................                    ",
"                    ........................                    ",
"                ....@@@@@@@@@@@@@@@@@@@@@@@@....                ",
"                ....@@@@@@@@@@@@@@@@@@@@@@@@....                ",
"                ....@@@@@@@@@@@@@@@@@@@@@@@@....                ",
"                ....@@@@@@@@@@@@@@@@@@@@@@@@....                ",
"                ....@@@@@@@@@@@@@@@@@@@@@@@@....                ",
"                ....@@@@@@@@@@@@@@@@@@@@@@@@....                ",
"                ....@@@@@@@@@@@@@@@@@@@@@@@@....                ",
"                ....@@@@@@@@@@@@@@@@@@@@@@@@....                ",
"        XXXXXXXX....@@@@@@@@@@@@@@@@@@@@@@@@....XXXXXXXX        ",
"        XXXXXXXX....@@@@@@@@@@@@@@@@@@@@@@@@....XXXXXXXX        ",
"        XXXXXXXX....@@@@@@@@@@@@@@@@@@@@@@@@....XXXXXXXX        ",
"        XXXXXXXX....@@@@@@@@@@@@@@@@@@@@@@@@....XXXXXXXX        ",
"            XXXX....@@@@@@@@++++++++@@@@@@@@....XXXX            ",
"            XXXX....@@@@@@@@++++++++@@@@@@@@....XXXX            ",
"            XXXX....@@@@@@@@++++++++@@@@@@@@....XXXX            ",
"            XXXX....@@@@@@@@++++++++@@@@@@@@....XXXX            ",
"                ....@@@@@@@@@@@@@@@@@@@@@@@@....                ",
"                ....@@@@@@@@@@@@@@@@@@@@@@@@....                ",
"                ....@@@@@@@@@@@@@@@@@@@@@@@@....                ",
"                ....@@@@@@@@@@@@@@@@@@@@@@@@....                ",
"                ....@@@@.@@.@@@@.@@.@@@@@@@@....                ",
"                ....@@@@@..@@@@@@..@@@@@@@@@....                ",
"                ....@@@@@..@@@@@@..@@@@@@@@@....                ",
"                ....@@@@.@@.@@@@.@@.@@@@@@@@....                ",
"                ....@@@@@@@@@@@@@@@@@@@@@@@@....                ",
"                ....@@@@@@@@@@@@@@@@@@@@@@@@....                ",
"                ....@@@@@@@@@@@@@@@@@@@@@@@@....                ",
"                ....@@@@@@@@@@@@@@@@@@@@@@@@....                ",
"                    ........oooooooooooo....                    ",
"                    ........oooooooooooo....                    ",
"                    ........oooooooooooo....                    ",
"                    ........oooooooooooo....                    ",
"                                oooo                            ",
"                                oooo                            ",
"                                oooo                            ",
"                                oooo                            ",
"                                oooo                            ",
"                                oooo                            ",
"                                oooo                            ",
"                                oooo                            ",
"                                                                ",
"                                                                ",
"                                                                ",
"                                                                ",
"                                                                ",
"                                                                ",
"                                                                ",
"                                                                ",
};
