/* XPM */
static char *_f1ae18e4c1a428084fe10dac1ea9506QPpWFrTe4RAPjLqh[] = {
/* columns rows colors chars-per-pixel */
"64 64 172 2 ",
"   c None",
".  c #092A2D",
"X  c #112C2E",
"o  c #192D2F",
"O  c #0B2E32",
"+  c #1F2F30",
"@  c #10373C",
"#  c #11393F",
"$  c #0E3337",
"%  c #2F3C3E",
"&  c #243939",
"*  c #343433",
"=  c #383734",
"-  c #363837",
";  c #3C3A35",
":  c #323738",
">  c #333A3A",
",  c #413D33",
"<  c #423F38",
"1  c #5A4D2F",
"2  c #574C2F",
"3  c #464031",
"4  c #4C4431",
"5  c #454139",
"6  c #4A453A",
"7  c #4E483C",
"8  c #544930",
"9  c #534C3D",
"0  c #58503F",
"q  c #66562D",
"w  c #6C5A2D",
"e  c #705D2C",
"r  c #7C652B",
"t  c #76612C",
"y  c #143D44",
"u  c #1C3D42",
"i  c #2C3E43",
"p  c #303E41",
"a  c #154047",
"s  c #17434A",
"d  c #19464E",
"f  c #1D4B55",
"g  c #1E4E59",
"h  c #1A4750",
"j  c #2A4146",
"k  c #27464D",
"l  c #29434A",
"z  c #26484F",
"x  c #3A504E",
"c  c #244A53",
"v  c #214F59",
"b  c #20505B",
"n  c #5E5541",
"m  c #605642",
"M  c #655A43",
"N  c #6A5E45",
"B  c #6E6146",
"V  c #706347",
"C  c #746648",
"Z  c #7A6A4A",
"A  c #776849",
"S  c #7F724F",
"D  c #757754",
"F  c #83692A",
"G  c #8B6F2A",
"H  c #8D7029",
"J  c #937429",
"K  c #997928",
"L  c #9D7B27",
"P  c #A17E27",
"I  c #806F4C",
"U  c #85724E",
"Y  c #8B774F",
"T  c #8E7A51",
"R  c #937D52",
"E  c #A58027",
"W  c #AB8526",
"Q  c #B28A25",
"!  c #BD9124",
"~  c #E7AD1F",
"^  c #E9AF1F",
"/  c #EDB21F",
"(  c #F2B51E",
")  c #F7B91E",
"_  c #FCBC1D",
"`  c #C49623",
"'  c #CD9C22",
"]  c #C79823",
"[  c #D19E22",
"{  c #D4A121",
"}  c #DBA521",
"|  c #DFA820",
" . c #E4AB20",
".. c #FCBE22",
"X. c #FCBF29",
"o. c #FCC12D",
"O. c #FCC53A",
"+. c #978053",
"@. c #9A8354",
"#. c #A38A57",
"$. c #A68D58",
"%. c #A98F59",
"&. c #AD925B",
"*. c #B6985D",
"=. c #BA9C5E",
"-. c #B3965C",
";. c #BE9E60",
":. c #B8A368",
">. c #C5A462",
",. c #CDAA65",
"<. c #D2AE66",
"1. c #D4B067",
"2. c #D7B268",
"3. c #DAB569",
"4. c #DFB96B",
"5. c #E4BC6C",
"6. c #FDCA4C",
"7. c #FDC742",
"8. c #FDCC53",
"9. c #FDCE5B",
"0. c #FDD05F",
"q. c #EAC16E",
"w. c #FDD164",
"e. c #FDD46F",
"r. c #EAC372",
"t. c #ECC67B",
"y. c #ECC87F",
"u. c #FDD674",
"i. c #FDD97E",
"p. c #EDCA84",
"a. c #EECE8C",
"s. c #FDDB85",
"d. c #FEDE8E",
"f. c #EFCF90",
"g. c #EFD092",
"h. c #F0D295",
"j. c #FEDF93",
"k. c #F0D49A",
"l. c #FEE097",
"z. c #FEE199",
"x. c #F1D7A2",
"c. c #F2D9A5",
"v. c #F3DBAA",
"b. c #F4DDB2",
"n. c #FEE7AD",
"m. c #FEE5A6",
"M. c #F4E0B6",
"N. c #FEE9B5",
"B. c #F5E3BC",
"V. c #FEEBBC",
"C. c #F7E6C4",
"Z. c #FEEEC5",
"A. c #F7E8CA",
"S. c #F8EBCF",
"D. c #FEEFCA",
"F. c #F7E7C8",
"G. c #FEF0CC",
"H. c #F8ECD3",
"J. c #F9EED8",
"K. c #FEF2D3",
"L. c #FCF2DC",
"P. c #FCF4E3",
"I. c #FCF6E9",
"U. c #FCF6EB",
"Y. c #FEF9EC",
"T. c #FEFBF5",
"R. c #FEFAF3",
"E. c #FEFDFA",
"W. c white",
"Q. c #FFFFFE",
"!. c #FFFEFD",
"~. c #FFFFFE",
/* pixels */
"                                                                                                                                ",
"                                                                                                                                ",
"                                                                                                                                ",
"                                                                                                                                ",
"              _                                                                                                                 ",
"              _                                                                                                                 ",
"            _ _ _ _                                                                                                             ",
"              _                                     * * * * * * * * * * *                                                       ",
"                                              * * * * * * *         * * * * * * *                                               ",
"                                          * * *         * * * * * * *         * * *                                             ",
"                                      * * *     * * * * ; 7 m C U N 5 * * * * *                                                 ",
"                                  * * *     * * < U ,.5.q.q.t.t.t.q.q.4.;.@.A = * *       *                                     ",
"                                * *     * * M &.5.y.b.S.P.E.W.W.W.W.R.J.M.h.r.3.U = * *   * * *                                 ",
"                              * *   * * B 1.q.c.L.W.E.L.F.b.k.k.x.v.M.J.E.W.R.M.t.3.U = *     * *                               ",
"                            * *   * * @.q.q.t.R.J.c.t.q.q.q.q.q.q.q.q.q.r.a.F.W.E.B.t.3.B *     * *                             ",
"                                * 6 >.p.J.k.q.q.q.q.q.q.q.q.q.q.q.q.q.q.q.q.q.y.C.E.E.v.q.I * *   * *                           ",
"                    * *     * * N 4.g.R.Y.p.q.q.q.q.q.q.q.q.3.>.>.5.q.q.q.q.q.q.q.t.A.W.B.q.T * *   * *                         ",
"                * * * *   * * +.q.v.W.L.t.q.q.q.q.q.=.V 7 = * * * * 6 N T <.q.q.q.q.q.b.W.S.r.@.* *   *                         ",
"                *     * * < ;.t.S.W.F.r.q.q.q.5.#.9 * - j l k c c k j > * * B >.q.q.q.q.x.E.L.t.$.*   * *                       ",
"                  * * = I 3.a.U.E.c.q.q.q.q.>.5 * p c b b b b b b b b b v l - * Y 5.q.q.q.g.R.H.q.B *   * *                     ",
"* * * * * * * * * 5 R 3.q.x.E.P.p.q.q.q.q.-.= : c b b b b b b b b b b b b b v j * 9 2.q.q.q.x.W.x.2.= *   *                     ",
"* 9 +.@.Y U @.=.3.c.h.q.q.P.F.r.q.q.q.q.+.* i v b b b b b b b b b b b b b b b b c - 7 3.q.q.q.H.R.t.@.*   * *                   ",
"  * * M #.3.q.q.r.U.W.T.F.h.r.q.q.q.q.=.* : l v b b b b b b b b b b b b b b b b b c * 9 5.q.q.t.R.H.5.9 *   *                   ",
"      * * * M #.4.q.h.B.Y.W.R.F.h.r.q.5.@.0 * * % k v b b b b b b b b b b b b b b b c * Z q.q.q.x.W.h.;.*   * *                 ",
"            * * * 6 Z 1.q.f.C.R.W.U.r.q.r.q.1.+.0 * * % k v b b b b b b b b b b b b b l * =.q.q.q.U.A.q.5 *   *                 ",
"                * * * * n $.4.q.g.v.r.A.R.F.r.q.q.<.R 9 * * % k v b b b b b b b b b b b > U q.q.q.B.R.r.Z *   *                 ",
"                      * 4 * * N %.5.q.p.C.U.p.r.c.h.r.q.<.R 9 * * % k v b b b b b b b b b :.q.q.q.a.W.k.&.*                     ",
"                      * ~ } K 8 * * N %.5.q.q.r.U.W.R.F.g.r.q.<.R 9 * * % k v b b b b b b x @.q.q.q.U.S.5.*                     ",
"                    * 3 _ _ _ _ G * > * * N %.5.r.h.F.R.W.R.C.g.q.q.,.R 9 * * % k v b b b j 5 q.q.q.b.P.q.n *   *               ",
"                *   = t _ X.o._ w > b c j > * = B &.5.r.h.F.R.W.R.C.g.q.q.,.R 9 * * % k v k * 3.q.q.q.t.q.R *   *               ",
"                *   * J _ N.n._ , j b b b f u & : * = B &.5.r.h.F.R.W.R.C.g.q.q.,.T 7 * * % * *.q.q.q.p.r.>.*   * *             ",
"                *   * K _ Z.V._ * l b b b d a a a u & * * = V &.5.r.h.F.R.W.R.C.a.q.q.,.T 7 * $.q.q.q.P.C.q.< *   *             ",
"                *   * L _ D.N._ * l b b b d a a a a . . X + * * = V &.5.r.k.A.R.W.Y.B.a.q.q.<.5.q.q.q.B.R.q.C *   *             ",
"                *   * P _ G.N._ * l b b b d a a a a O . . . . X + * * < 5.q.q.r.k.A.R.W.U.t.q.q.q.q.q.p.W.g.*.*   * *           ",
"                *   * J _ V.Z._ 3 j b b b h a a a a $ . . . . . . . X o & D S Z *.5.r.k.B.t.q.r.c.a.q.q.P.H.q.m *   * *         ",
"                *   * e _ j.R._ w % b b b f a a a a y . . . . . . . . . O y u : * ; Z *.5.q.q.t.R.W.U.B.F.W.a.>.*     *         ",
"                * * * 4 _ w.W.7.J * v b b v a a a a a @ . . . . . . . . y a a a u & - * ; C %.5.r.k.A.R.W.W.U.p.Z *     *       ",
"                * *   * ( O.W.u.{ * k b b b h a a a a a # O . . . . O y a a a a a f b c j * * ; Z =.5.r.k.H.W.R.5.m *   *       ",
"                  *   * Q _ K.D._ 2 % b b b b s a a a a a y y @ # y a a a a a a h b b b k * W H 3 * ; N *.5.r.p.q.5.9 *         ",
"                  *   * q _ e.W.6.W * c b b b g a a a a a a a a a a a a a a a s v b b b > 1 _ _ _ ' t * * 7 q.,.q.q.3.0 * *     ",
"                  * *   *  ...Y.n._ 1 > v b b b f s a a a a a a a a a a a a s g b b b l * ` o.8._ _ w *       * <.&.=.5.@.= *   ",
"                    *   * J _ s.W.8.{ * i b b b b g d a a a a a a a a a a h b b b b c * F _ Z.K._ } *             = * < Z #.9 * ",
"                    * * * * | ..K.P.o.P * j b b b b b f d s a a a s s d f b b b b c - 4 ( w.W.w._ r *   *             * * * * = ",
"                    * *   * q _ O.T.n._ J * j b b b b b b b v f f b b b b b b b c * 4  ._ 6.d._ ] *   * *                       ",
"                      * *   * Q _ u.L._ _ J * > c b b b b b b b b b b b b b v j * 8 ^ o.o._ _ / , *   * *                       ",
"                        *   * = ' _ .._ _ _ ] 3 * i c b b b b b b b b b v k - * G ( e.R.l._ _ w *     *                         ",
"                        * *   * ; } _ _ s.V.o./ J , * > j k c c c z l i * * q { X.n.W.Z.o._ F *                                 ",
"                          * *   * , } _ 8.Y.e._ _ ) Q F 1 = * * * * * 1 P ~ ..0.P.W.l...) t *                                   ",
"                                  * = Q _ .._ ..N.z.6..._ _ ~ ] [ ^ _ _ 7.z.Y.W.G.8._ / w *   * * *                             ",
"                                    * * r ( _ _ l.R.W.E.L.n.s.i.j.m.V.L.W.W.Z.9._ _ Q , *   * * *         * * * * :             ",
"                                * *     * 3 P ( _ ..8.u.z.V.P.W.W.Y.K.N.e.o._ _ { q * *   * *             * i c l *             ",
"                                  * * *   * * = H } _ _ _ _ _ .._ _ _ _ _ / E 8 * ;     * *             * : v b b : *           ",
"                                      * *     * * * ; w K ! ` ] ' ] E r 1 * * *     * * *                 * c b v : *           ",
"                                        * * * *     * * * * * * * * * * *       * * *                     : : i : *             ",
"                                            * * * * * *                 * * * * *                           * : *               ",
"                                                  * * * * * * * * * * * * *                                                     ",
"                                                              *                           _ _                                   ",
"                                                                                        _ _ _ _                                 ",
"                                                                                          _ _                                   ",
"                                                                                                                                ",
"                                                                                                                                ",
"                                                                                                                                ",
"                                                                                                                                ",
"                                                                                                                                "
};
