/* XPM */
static char *_8a421964ef04158ecad2cd295206582bJxHpTEYaTbqVn5U[] = {
/* columns rows colors chars-per-pixel */
"64 64 7 1 ",
"  c None",
". c #DF0000",
"X c black",
"o c white",
"O c #FFF300",
"+ c #868686",
"@ c #CBC200",
/* pixels */
"                                                                ",
"                                                                ",
"                                                                ",
"                                                                ",
"                                                                ",
"                                    .....                       ",
"                                    .....                       ",
"                                    .....                       ",
"                                    .....                       ",
"                                    .....                       ",
"                                    ..........                  ",
"                                    ..........                  ",
"                                    ..........                  ",
"                                    ..........                  ",
"                                    ..........                  ",
"                      XXXXXXXXX...............                  ",
"                      XXXXXXXXX...............                  ",
"                      XXXXXXXXX...............                  ",
"                      XXXXXXXXX...............                  ",
"                      XXXXXXXXX...............                  ",
"                 XXXXXooooooooooooooooooooooooXXXXX             ",
"                 XXXXXooooooooooooooooooooooooXXXXX             ",
"                 XXXXXooooooooooooooooooooooooXXXXX             ",
"                 XXXXXooooooooooooooooooooooooXXXXX             ",
"                 XXXXXooooooooooooooooooooooooXXXXX             ",
"                 XXXXXooooooooooooooXXXXXoooooXXXXX             ",
"                 XXXXXooooooooooooooXXXXXoooooXXXXX             ",
"                 XXXXXooooooooooooooXXXXXoooooXXXXX             ",
"                 XXXXXooooooooooooooXXXXXoooooXXXXX             ",
"                 XXXXXooooooooooooooXXXXXoooooXXXXX             ",
"                 XXXXXooooooooooooooooooooooooOOOOOXXXXX        ",
"                 XXXXXooooooooooooooooooooooooOOOOOXXXXX        ",
"                 XXXXXooooooooooooooooooooooooOOOOOXXXXX        ",
"                 XXXXXooooooooooooooooooooooooOOOOOXXXXX        ",
"                 XXXXXooooooooo++++++++++oooooXXXXX             ",
"                 XXXXXooooooooo++++++++++oooooXXXXX             ",
"                 XXXXXooooooooo++++++++++oooooXXXXX             ",
"                 XXXXXooooooooo++++++++++oooooXXXXX             ",
"                 XXXXXooooooooo++++++++++oooooXXXXX             ",
"       XXXXXXXXXXXXXXXooooo++++ooooooooooooooo.....             ",
"       XXXXXXXXXXXXXXXooooo++++ooooooooooooooo.....             ",
"       XXXXXXXXXXXXXXXooooo++++ooooooooooooooo.....             ",
"       XXXXXXXXXXXXXXXooooo++++ooooooooooooooo.....             ",
"       XXXXXXXXXXXXXXXooooo++++ooooooooooooooo.....             ",
"       XXXXXooooooooooooooooooo++++++++++oooooXXXXX             ",
"       XXXXXooooooooooooooooooo++++++++++oooooXXXXX             ",
"       XXXXXooooooooooooooooooo++++++++++oooooXXXXX             ",
"       XXXXXooooooooooooooooooo++++++++++oooooXXXXX             ",
"       XXXXXooooooooooooooooooo++++++++++oooooXXXXX             ",
"            XXXXXoooooooooooooooooooooooooooooXXXXX             ",
"            XXXXXoooooooooooooooooooooooooooooXXXXX             ",
"            XXXXXoooooooooooooooooooooooooooooXXXXX             ",
"            XXXXXoooooooooooooooooooooooooooooXXXXX             ",
"            XXXXXoooooooooooooooooooooooooooooXXXXX             ",
"                 XXXXXXXXXXXXXXXXXXXXXXXXXXXXXXXXXX             ",
"                 XXXXXXXXXXXXXXXXXXXXXXXXXXXXXXXXXX             ",
"                 XXXXXXXXXXXXXXXXXXXXXXXXXXXXXXXXXX             ",
"                 XXXXXXXXXXXXXXXXXXXXXXXXXXXXXXXXXX             ",
"                 XXXXXXXXXXXXXXXXXXXXXXXXXXXXXXXXXX             ",
"                      @@@@@              @@@@@                  ",
"                      @@@@@              @@@@@                  ",
"                      @@@@@              @@@@@                  ",
"                      @@@@@              @@@@@                  ",
"                      @@@@@              @@@@@                  "
};
