/* XPM */
static char *_45cfcbfead54d07d28d655e4a6d8918Ik32Dk7U5kAcSYNe[] = {
/* columns rows colors chars-per-pixel */
"64 64 7 1 ",
"  c None",
". c #DF0000",
"X c black",
"o c white",
"O c #FFF300",
"+ c #868686",
"@ c #CBC200",
/* pixels */
"                       .....                                    ",
"                       .....                                    ",
"                       .....                                    ",
"                       .....                                    ",
"                       .....                                    ",
"                  ..........                                    ",
"                  ..........                                    ",
"                  ..........                                    ",
"                  ..........                                    ",
"                  ..........                                    ",
"                  ...............XXXXXXXXX                      ",
"                  ...............XXXXXXXXX                      ",
"                  ...............XXXXXXXXX                      ",
"                  ...............XXXXXXXXX                      ",
"                  ...............XXXXXXXXX                      ",
"             XXXXXooooooooooooooooooooooooXXXXX                 ",
"             XXXXXooooooooooooooooooooooooXXXXX                 ",
"             XXXXXooooooooooooooooooooooooXXXXX                 ",
"             XXXXXooooooooooooooooooooooooXXXXX                 ",
"             XXXXXooooooooooooooooooooooooXXXXX                 ",
"             XXXXXoooooXXXXXooooooooooooooXXXXX                 ",
"             XXXXXoooooXXXXXooooooooooooooXXXXX                 ",
"             XXXXXoooooXXXXXooooooooooooooXXXXX                 ",
"             XXXXXoooooXXXXXooooooooooooooXXXXX                 ",
"             XXXXXoooooXXXXXooooooooooooooXXXXX                 ",
"        XXXXXOOOOOooooooooooooooooooooooooXXXXX                 ",
"        XXXXXOOOOOooooooooooooooooooooooooXXXXX                 ",
"        XXXXXOOOOOooooooooooooooooooooooooXXXXX                 ",
"        XXXXXOOOOOooooooooooooooooooooooooXXXXX                 ",
"        XXXXXOOOOOooooooooooooooooooooooooXXXXX                 ",
"             XXXXXooooo++++++++++oooooooooXXXXX                 ",
"             XXXXXooooo++++++++++oooooooooXXXXX                 ",
"             XXXXXooooo++++++++++oooooooooXXXXX                 ",
"             XXXXXooooo++++++++++oooooooooXXXXX                 ",
"             .....ooooooooooooooo++++oooooXXXXXXXXXXXXXXX       ",
"             .....ooooooooooooooo++++oooooXXXXXXXXXXXXXXX       ",
"             .....ooooooooooooooo++++oooooXXXXXXXXXXXXXXX       ",
"             .....ooooooooooooooo++++oooooXXXXXXXXXXXXXXX       ",
"             .....ooooooooooooooo++++oooooXXXXXXXXXXXXXXX       ",
"             XXXXXooooo++++++++++oooooooooooooooooooXXXXX       ",
"             XXXXXooooo++++++++++oooooooooooooooooooXXXXX       ",
"             XXXXXooooo++++++++++oooooooooooooooooooXXXXX       ",
"             XXXXXooooo++++++++++oooooooooooooooooooXXXXX       ",
"             XXXXXooooo++++++++++oooooooooooooooooooXXXXX       ",
"             XXXXXoooooooooooooooooooooooooooooXXXXX            ",
"             XXXXXoooooooooooooooooooooooooooooXXXXX            ",
"             XXXXXoooooooooooooooooooooooooooooXXXXX            ",
"             XXXXXoooooooooooooooooooooooooooooXXXXX            ",
"             XXXXXoooooooooooooooooooooooooooooXXXXX            ",
"             XXXXXXXXXXXXXXXXXXXXXXXXXXXXXXXXXX                 ",
"             XXXXXXXXXXXXXXXXXXXXXXXXXXXXXXXXXX                 ",
"             XXXXXXXXXXXXXXXXXXXXXXXXXXXXXXXXXX                 ",
"             XXXXXXXXXXXXXXXXXXXXXXXXXXXXXXXXXX                 ",
"             XXXXXXXXXXXXXXXXXXXXXXXXXXXXXXXXXX                 ",
"                  @@@@@              @@@@@                      ",
"                  @@@@@              @@@@@                      ",
"                  @@@@@              @@@@@                      ",
"                  @@@@@              @@@@@                      ",
"                  @@@@@              @@@@@                      ",
"                  @@@@@              @@@@@                      ",
"                  @@@@@              @@@@@                      ",
"                  @@@@@              @@@@@                      ",
"                  @@@@@              @@@@@                      ",
"                  @@@@@              @@@@@                      "
};
