/* XPM */
static char *_45cfcbfead54d07d28d655e4a6d8918Ik32Dk7U5kAcSYNe[] = {
/* columns rows colors chars-per-pixel */
"64 64 7 1 ",
"  c None",
". c #DF0000",
"X c black",
"o c white",
"O c #FFF300",
"+ c #868686",
"@ c #CBC200",
/* pixels */
"                                    .....                       ",
"                                    .....                       ",
"                                    .....                       ",
"                                    .....                       ",
"                                    .....                       ",
"                                    ..........                  ",
"                                    ..........                  ",
"                                    ..........                  ",
"                                    ..........                  ",
"                                    ..........                  ",
"                      XXXXXXXXX...............                  ",
"                      XXXXXXXXX...............                  ",
"                      XXXXXXXXX...............                  ",
"                      XXXXXXXXX...............                  ",
"                      XXXXXXXXX...............                  ",
"                 XXXXXooooooooooooooooooooooooXXXXX             ",
"                 XXXXXooooooooooooooooooooooooXXXXX             ",
"                 XXXXXooooooooooooooooooooooooXXXXX             ",
"                 XXXXXooooooooooooooooooooooooXXXXX             ",
"                 XXXXXooooooooooooooooooooooooXXXXX             ",
"                 XXXXXooooooooooooooXXXXXoooooXXXXX             ",
"                 XXXXXooooooooooooooXXXXXoooooXXXXX             ",
"                 XXXXXooooooooooooooXXXXXoooooXXXXX             ",
"                 XXXXXooooooooooooooXXXXXoooooXXXXX             ",
"                 XXXXXooooooooooooooXXXXXoooooXXXXX             ",
"                 XXXXXooooooooooooooooooooooooOOOOOXXXXX        ",
"                 XXXXXooooooooooooooooooooooooOOOOOXXXXX        ",
"                 XXXXXooooooooooooooooooooooooOOOOOXXXXX        ",
"                 XXXXXooooooooooooooooooooooooOOOOOXXXXX        ",
"                 XXXXXooooooooooooooooooooooooOOOOOXXXXX        ",
"                 XXXXXooooooooo++++++++++oooooXXXXX             ",
"                 XXXXXooooooooo++++++++++oooooXXXXX             ",
"                 XXXXXooooooooo++++++++++oooooXXXXX             ",
"                 XXXXXooooooooo++++++++++oooooXXXXX             ",
"       XXXXXXXXXXXXXXXooooo++++ooooooooooooooo.....             ",
"       XXXXXXXXXXXXXXXooooo++++ooooooooooooooo.....             ",
"       XXXXXXXXXXXXXXXooooo++++ooooooooooooooo.....             ",
"       XXXXXXXXXXXXXXXooooo++++ooooooooooooooo.....             ",
"       XXXXXXXXXXXXXXXooooo++++ooooooooooooooo.....             ",
"       XXXXXooooooooooooooooooo++++++++++oooooXXXXX             ",
"       XXXXXooooooooooooooooooo++++++++++oooooXXXXX             ",
"       XXXXXooooooooooooooooooo++++++++++oooooXXXXX             ",
"       XXXXXooooooooooooooooooo++++++++++oooooXXXXX             ",
"       XXXXXooooooooooooooooooo++++++++++oooooXXXXX             ",
"            XXXXXoooooooooooooooooooooooooooooXXXXX             ",
"            XXXXXoooooooooooooooooooooooooooooXXXXX             ",
"            XXXXXoooooooooooooooooooooooooooooXXXXX             ",
"            XXXXXoooooooooooooooooooooooooooooXXXXX             ",
"            XXXXXoooooooooooooooooooooooooooooXXXXX             ",
"                 XXXXXXXXXXXXXXXXXXXXXXXXXXXXXXXXXX             ",
"                 XXXXXXXXXXXXXXXXXXXXXXXXXXXXXXXXXX             ",
"                 XXXXXXXXXXXXXXXXXXXXXXXXXXXXXXXXXX             ",
"                 XXXXXXXXXXXXXXXXXXXXXXXXXXXXXXXXXX             ",
"                 XXXXXXXXXXXXXXXXXXXXXXXXXXXXXXXXXX             ",
"                      @@@@@              @@@@@                  ",
"                      @@@@@              @@@@@                  ",
"                      @@@@@              @@@@@                  ",
"                      @@@@@              @@@@@                  ",
"                      @@@@@              @@@@@                  ",
"                      @@@@@              @@@@@                  ",
"                      @@@@@              @@@@@                  ",
"                      @@@@@              @@@@@                  ",
"                      @@@@@              @@@@@                  ",
"                      @@@@@              @@@@@                  "
};
