/* XPM */
static char *_8a421964ef04158ecad2cd295206582bJxHpTEYaTbqVn5U[] = {
/* columns rows colors chars-per-pixel */
"64 64 7 1 ",
"  c None",
". c #DF0000",
"X c black",
"o c white",
"O c #FFF300",
"+ c #868686",
"@ c #CBC200",
/* pixels */
"                                                                ",
"                                                                ",
"                                                                ",
"                                                                ",
"                                                                ",
"                       .....                                    ",
"                       .....                                    ",
"                       .....                                    ",
"                       .....                                    ",
"                       .....                                    ",
"                  ..........                                    ",
"                  ..........                                    ",
"                  ..........                                    ",
"                  ..........                                    ",
"                  ..........                                    ",
"                  ...............XXXXXXXXX                      ",
"                  ...............XXXXXXXXX                      ",
"                  ...............XXXXXXXXX                      ",
"                  ...............XXXXXXXXX                      ",
"                  ...............XXXXXXXXX                      ",
"             XXXXXooooooooooooooooooooooooXXXXX                 ",
"             XXXXXooooooooooooooooooooooooXXXXX                 ",
"             XXXXXooooooooooooooooooooooooXXXXX                 ",
"             XXXXXooooooooooooooooooooooooXXXXX                 ",
"             XXXXXooooooooooooooooooooooooXXXXX                 ",
"             XXXXXoooooXXXXXooooooooooooooXXXXX                 ",
"             XXXXXoooooXXXXXooooooooooooooXXXXX                 ",
"             XXXXXoooooXXXXXooooooooooooooXXXXX                 ",
"             XXXXXoooooXXXXXooooooooooooooXXXXX                 ",
"             XXXXXoooooXXXXXooooooooooooooXXXXX                 ",
"        XXXXXOOOOOooooooooooooooooooooooooXXXXX                 ",
"        XXXXXOOOOOooooooooooooooooooooooooXXXXX                 ",
"        XXXXXOOOOOooooooooooooooooooooooooXXXXX                 ",
"        XXXXXOOOOOooooooooooooooooooooooooXXXXX                 ",
"             XXXXXooooo++++++++++oooooooooXXXXX                 ",
"             XXXXXooooo++++++++++oooooooooXXXXX                 ",
"             XXXXXooooo++++++++++oooooooooXXXXX                 ",
"             XXXXXooooo++++++++++oooooooooXXXXX                 ",
"             XXXXXooooo++++++++++oooooooooXXXXX                 ",
"             .....ooooooooooooooo++++oooooXXXXXXXXXXXXXXX       ",
"             .....ooooooooooooooo++++oooooXXXXXXXXXXXXXXX       ",
"             .....ooooooooooooooo++++oooooXXXXXXXXXXXXXXX       ",
"             .....ooooooooooooooo++++oooooXXXXXXXXXXXXXXX       ",
"             .....ooooooooooooooo++++oooooXXXXXXXXXXXXXXX       ",
"             XXXXXooooo++++++++++oooooooooooooooooooXXXXX       ",
"             XXXXXooooo++++++++++oooooooooooooooooooXXXXX       ",
"             XXXXXooooo++++++++++oooooooooooooooooooXXXXX       ",
"             XXXXXooooo++++++++++oooooooooooooooooooXXXXX       ",
"             XXXXXooooo++++++++++oooooooooooooooooooXXXXX       ",
"             XXXXXoooooooooooooooooooooooooooooXXXXX            ",
"             XXXXXoooooooooooooooooooooooooooooXXXXX            ",
"             XXXXXoooooooooooooooooooooooooooooXXXXX            ",
"             XXXXXoooooooooooooooooooooooooooooXXXXX            ",
"             XXXXXoooooooooooooooooooooooooooooXXXXX            ",
"             XXXXXXXXXXXXXXXXXXXXXXXXXXXXXXXXXX                 ",
"             XXXXXXXXXXXXXXXXXXXXXXXXXXXXXXXXXX                 ",
"             XXXXXXXXXXXXXXXXXXXXXXXXXXXXXXXXXX                 ",
"             XXXXXXXXXXXXXXXXXXXXXXXXXXXXXXXXXX                 ",
"             XXXXXXXXXXXXXXXXXXXXXXXXXXXXXXXXXX                 ",
"                  @@@@@              @@@@@                      ",
"                  @@@@@              @@@@@                      ",
"                  @@@@@              @@@@@                      ",
"                  @@@@@              @@@@@                      ",
"                  @@@@@              @@@@@                      "
};
