/* XPM */
static char *f6cce96ce78e424e85a11ae1a148b4b3hbQ5h3CpK25KLmSH[] = {
/* columns rows colors chars-per-pixel */
"64 64 16 1 ",
"  c None",
". c black",
"X c #000409",
"o c #2E222F",
"O c #5B2229",
"+ c #1B4A2F",
"@ c #7A3045",
"# c #9E4539",
"$ c #CD683D",
"% c #3D9243",
"& c #59B352",
"* c #E6904E",
"= c #FBB954",
"- c #8AD364",
"; c #91DB69",
": c #FFF2C4",
/* pixels */
"                        XXXXXXXXXXXX                            ",
"                        XXXXXXXXXXXX                            ",
"                        XXXXXXXXXXXX                            ",
"                        XXXXXXXXXXXX                            ",
"                        XXXX----%%%%XXXX                        ",
"                        XXXX----%%%%XXXX                        ",
"                        XXXX----%%%%XXXX                        ",
"                        XXXX----%%%%XXXX                        ",
"                        XXXXXXXX;;;;XXXX                        ",
"                        XXXXXXXX;;;;XXXX                        ",
"                        XXXXXXXX;;;;XXXX                        ",
"                        XXXXXXXX;;;;XXXX                        ",
"            XXXXXXXXXXXX****&&&&XXXXXXXXXXXXXXXXXXXX            ",
"            XXXXXXXXXXXX****&&&&XXXXXXXXXXXXXXXXXXXX            ",
"            XXXXXXXXXXXX****&&&&XXXXXXXXXXXXXXXXXXXX            ",
"            XXXXXXXXXXXX****&&&&XXXXXXXXXXXXXXXXXXXX            ",
"        XXXX****::::====OOOO++++%%%%OOOO::::****####XXXX        ",
"        XXXX****::::====OOOO++++%%%%OOOO::::****####XXXX        ",
"        XXXX****::::====OOOO++++%%%%OOOO::::****####XXXX        ",
"        XXXX****::::====OOOO++++%%%%OOOO::::****####XXXX        ",
"    XXXX****::::****####====OOOOOOOO$$$$OOOO====****OOOOXXXX    ",
"    XXXX****::::****####====OOOOOOOO$$$$OOOO====****OOOOXXXX    ",
"    XXXX****::::****####====OOOOOOOO$$$$OOOO====****OOOOXXXX    ",
"    XXXX****::::****####====OOOOOOOO$$$$OOOO====****OOOOXXXX    ",
"XXXX####====****$$$$====****************====####$$$$####OOOOXXXX",
"XXXX####====****$$$$====****************====####$$$$####OOOOXXXX",
"XXXX####====****$$$$====****************====####$$$$####OOOOXXXX",
"XXXX####====****$$$$====****************====####$$$$####OOOOXXXX",
"XXXX********$$$$....$$$$****========****$$$$....$$$$$$$$OOOOXXXX",
"XXXX********$$$$....$$$$****========****$$$$....$$$$$$$$OOOOXXXX",
"XXXX********$$$$....$$$$****========****$$$$....$$$$$$$$OOOOXXXX",
"XXXX********$$$$....$$$$****========****$$$$....$$$$$$$$OOOOXXXX",
"XXXX****$$$$$$$$....oooo====........====oooo....$$$$####OOOOXXXX",
"XXXX****$$$$$$$$....oooo====........====oooo....$$$$####OOOOXXXX",
"XXXX****$$$$$$$$....oooo====........====oooo....$$$$####OOOOXXXX",
"XXXX****$$$$$$$$....oooo====........====oooo....$$$$####OOOOXXXX",
"XXXX****$$$$####OOOO....====........====....OOOO####OOOO####XXXX",
"XXXX****$$$$####OOOO....====........====....OOOO####OOOO####XXXX",
"XXXX****$$$$####OOOO....====........====....OOOO####OOOO####XXXX",
"XXXX****$$$$####OOOO....====........====....OOOO####OOOO####XXXX",
"XXXX$$$$$$$$OOOO********................$$$$$$$$OOOOOOOOOOOOXXXX",
"XXXX$$$$$$$$OOOO********................$$$$$$$$OOOOOOOOOOOOXXXX",
"XXXX$$$$$$$$OOOO********................$$$$$$$$OOOOOOOOOOOOXXXX",
"XXXX$$$$$$$$OOOO********................$$$$$$$$OOOOOOOOOOOOXXXX",
"XXXX####$$$$OOOOOOOO$$$$$$$$$$$$$$$$$$$$$$$$OOOO....OOOOOOOOXXXX",
"XXXX####$$$$OOOOOOOO$$$$$$$$$$$$$$$$$$$$$$$$OOOO....OOOOOOOOXXXX",
"XXXX####$$$$OOOOOOOO$$$$$$$$$$$$$$$$$$$$$$$$OOOO....OOOOOOOOXXXX",
"XXXX####$$$$OOOOOOOO$$$$$$$$$$$$$$$$$$$$$$$$OOOO....OOOOOOOOXXXX",
"XXXXOOOO########........@@@@............@@@@....@@@@OOOOOOOOXXXX",
"XXXXOOOO########........@@@@............@@@@....@@@@OOOOOOOOXXXX",
"XXXXOOOO########........@@@@............@@@@....@@@@OOOOOOOOXXXX",
"XXXXOOOO########........@@@@............@@@@....@@@@OOOOOOOOXXXX",
"    XXXXOOOO####@@@@............@@@@........@@@@@@@@OOOOXXXX    ",
"    XXXXOOOO####@@@@............@@@@........@@@@@@@@OOOOXXXX    ",
"    XXXXOOOO####@@@@............@@@@........@@@@@@@@OOOOXXXX    ",
"    XXXXOOOO####@@@@............@@@@........@@@@@@@@OOOOXXXX    ",
"        XXXXXXXXOOOOOOOO############OOOOOOOOOOOOXXXXXXXX        ",
"        XXXXXXXXOOOOOOOO############OOOOOOOOOOOOXXXXXXXX        ",
"        XXXXXXXXOOOOOOOO############OOOOOOOOOOOOXXXXXXXX        ",
"        XXXXXXXXOOOOOOOO############OOOOOOOOOOOOXXXXXXXX        ",
"                XXXXXXXXXXXXXXXXXXXXXXXXXXXXXXXX                ",
"                XXXXXXXXXXXXXXXXXXXXXXXXXXXXXXXX                ",
"                XXXXXXXXXXXXXXXXXXXXXXXXXXXXXXXX                ",
"                XXXXXXXXXXXXXXXXXXXXXXXXXXXXXXXX                ",
};
